<?xml version="1.0" encoding="UTF-8"?>
<svg version="1.1" xmlns="http://www.w3.org/2000/svg" width="800" height="800">
<path d="M0,0 L389,0 L389,1 L376,4 L362,11 L338,25 L312,40 L286,55 L260,70 L234,85 L208,100 L182,115 L156,130 L130,145 L104,160 L87,170 L69,181 L60,190 L53,200 L47,214 L45,225 L45,575 L48,588 L56,604 L63,613 L72,621 L89,631 L115,646 L139,660 L165,675 L191,690 L217,705 L243,720 L269,735 L295,750 L321,765 L347,780 L369,793 L383,798 L388,799 L388,800 L0,800 Z " fill="#000000" transform="translate(0,0)"/>
<path d="M0,0 L389,0 L389,800 L1,800 L1,799 L13,796 L32,786 L56,772 L82,757 L108,742 L134,727 L160,712 L186,697 L212,682 L238,667 L264,652 L290,637 L314,623 L323,616 L332,606 L340,590 L343,581 L344,574 L344,226 L341,212 L333,196 L326,187 L319,180 L293,165 L276,155 L250,140 L224,125 L198,110 L172,95 L146,80 L122,66 L94,50 L70,36 L42,20 L18,6 L6,2 L0,1 Z " fill="#000000" transform="translate(411,0)"/>
<path d="M0,0 L22,1 L44,4 L66,9 L87,16 L107,25 L127,36 L146,49 L161,62 L169,69 L176,77 L186,88 L200,107 L206,117 L206,119 L183,132 L159,146 L133,161 L109,175 L105,177 L97,166 L89,156 L80,147 L66,137 L49,128 L31,122 L12,119 L-8,119 L-27,122 L-45,128 L-64,138 L-74,146 L-76,146 L-76,148 L-84,155 L-87,159 L-89,159 L-91,163 L-98,173 L-108,192 L-114,212 L-116,225 L-116,249 L-113,266 L-107,284 L-98,301 L-89,313 L-78,325 L-65,335 L-49,344 L-34,350 L-16,354 L-7,355 L12,355 L30,352 L46,347 L62,339 L73,332 L84,323 L91,316 L100,304 L105,297 L119,305 L137,315 L161,329 L187,344 L206,355 L204,360 L197,371 L188,383 L177,396 L170,403 L169,405 L167,405 L167,407 L159,414 L146,425 L130,436 L119,443 L103,451 L84,459 L69,464 L53,468 L38,471 L22,473 L0,474 L-28,472 L-50,468 L-69,463 L-93,454 L-109,446 L-123,438 L-139,427 L-149,419 L-161,408 L-163,407 L-163,405 L-165,405 L-172,397 L-182,386 L-196,367 L-207,348 L-218,325 L-227,298 L-232,274 L-234,258 L-235,235 L-233,207 L-229,184 L-222,160 L-214,140 L-204,120 L-193,103 L-184,91 L-173,78 L-164,68 L-156,61 L-142,49 L-126,38 L-111,29 L-86,17 L-59,8 L-35,3 L-19,1 Z " fill="#000000" transform="translate(398,163)"/>
<path d="M0,0 L25,0 L25,26 L52,26 L52,52 L25,52 L25,78 L0,78 L0,52 L-27,52 L-27,26 L0,26 Z " fill="#000000" transform="translate(585,361)"/>
<path d="M0,0 L26,0 L26,26 L52,26 L52,52 L26,52 L26,78 L0,78 L0,52 L-26,52 L-26,26 L0,26 Z " fill="#000000" transform="translate(683,361)"/>
</svg>
